<svg width="32" height="32" viewBox="0 0 32 32" fill="none" xmlns="http://www.w3.org/2000/svg">
<g filter="url(#filter0_ii_8134_5669)">
<path d="M31.9999 12.3044H21.3333L26.6293 4.78995L31.9999 12.3044Z" fill="url(#paint0_linear_8134_5669)"/>
<path d="M13.4266 4.66667L24.1678 4.66667L18.7226 12.2427L13.4266 4.66667Z" fill="url(#paint1_linear_8134_5669)"/>
<path d="M18.7224 27.3333H8.05579L13.501 19.8188L18.7224 27.3333Z" fill="url(#paint2_linear_8134_5669)"/>
<path d="M8.09172e-05 19.6956L11.0397 19.6956L5.55848 27.3332L8.09172e-05 19.6956Z" fill="url(#paint3_linear_8134_5669)"/>
<path d="M24.0185 19.8188L18.7225 12.2427L13.501 19.8188L18.7225 27.3332L24.0185 19.8188Z" fill="url(#paint4_linear_8134_5669)"/>
<path d="M18.7227 12.2427L13.4267 4.66669L8.20526 12.2737L13.5013 19.8188L18.7227 12.2427Z" fill="url(#paint5_linear_8134_5669)"/>
</g>
<defs>
<filter id="filter0_ii_8134_5669" x="6.10352e-05" y="0.705233" width="31.9998" height="30.5895" filterUnits="userSpaceOnUse" color-interpolation-filters="sRGB">
<feFlood flood-opacity="0" result="BackgroundImageFix"/>
<feBlend mode="normal" in="SourceGraphic" in2="BackgroundImageFix" result="shape"/>
<feColorMatrix in="SourceAlpha" type="matrix" values="0 0 0 0 0 0 0 0 0 0 0 0 0 0 0 0 0 0 127 0" result="hardAlpha"/>
<feOffset dy="3.96144"/>
<feGaussianBlur stdDeviation="6.6024"/>
<feComposite in2="hardAlpha" operator="arithmetic" k2="-1" k3="1"/>
<feColorMatrix type="matrix" values="0 0 0 0 0 0 0 0 0 0 0 0 0 0 0 0 0 0 0.3 0"/>
<feBlend mode="normal" in2="shape" result="effect1_innerShadow_8134_5669"/>
<feColorMatrix in="SourceAlpha" type="matrix" values="0 0 0 0 0 0 0 0 0 0 0 0 0 0 0 0 0 0 127 0" result="hardAlpha"/>
<feOffset dy="-3.96144"/>
<feGaussianBlur stdDeviation="6.6024"/>
<feComposite in2="hardAlpha" operator="arithmetic" k2="-1" k3="1"/>
<feColorMatrix type="matrix" values="0 0 0 0 1 0 0 0 0 1 0 0 0 0 1 0 0 0 0.3 0"/>
<feBlend mode="normal" in2="effect1_innerShadow_8134_5669" result="effect2_innerShadow_8134_5669"/>
</filter>
<linearGradient id="paint0_linear_8134_5669" x1="29.3892" y1="8.48558" x2="22.1684" y2="13.5056" gradientUnits="userSpaceOnUse">
<stop stop-color="#7D2DEC"/>
<stop offset="1" stop-color="#4A01F5"/>
</linearGradient>
<linearGradient id="paint1_linear_8134_5669" x1="16.0373" y1="8.48549" x2="23.3354" y2="3.45826" gradientUnits="userSpaceOnUse">
<stop stop-color="#3276FF"/>
<stop offset="1" stop-color="#48F1FA"/>
</linearGradient>
<linearGradient id="paint2_linear_8134_5669" x1="15.9625" y1="23.2065" x2="8.98514" y2="28.5474" gradientUnits="userSpaceOnUse">
<stop stop-color="#3276FF"/>
<stop offset="1" stop-color="#48F1FA"/>
</linearGradient>
<linearGradient id="paint3_linear_8134_5669" x1="8.09995e-05" y1="19.6956" x2="7.45287" y2="24.7369" gradientUnits="userSpaceOnUse">
<stop stop-color="#4800F6"/>
<stop offset="1" stop-color="#7E2DEC"/>
</linearGradient>
<linearGradient id="paint4_linear_8134_5669" x1="18.7598" y1="12.2427" x2="18.7598" y2="27.3332" gradientUnits="userSpaceOnUse">
<stop stop-color="#F94140"/>
<stop offset="1" stop-color="#FEBF4B"/>
</linearGradient>
<linearGradient id="paint5_linear_8134_5669" x1="13.464" y1="4.66669" x2="13.464" y2="19.8188" gradientUnits="userSpaceOnUse">
<stop stop-color="#FEB631"/>
<stop offset="1" stop-color="#F94040"/>
</linearGradient>
</defs>
</svg>
