<svg width="845" height="265" viewBox="0 0 845 265" fill="none" xmlns="http://www.w3.org/2000/svg">
<g filter="url(#filter0_ii_3935_17799)">
<path d="M245.556 58.609H163.704L204.344 0.945801L245.556 58.609Z" fill="url(#paint0_linear_3935_17799)"/>
<path d="M103.031 2.45675e-05L185.455 1.52588e-05L143.671 58.1358L103.031 2.45675e-05Z" fill="url(#paint1_linear_3935_17799)"/>
<path d="M143.67 173.936H61.8178L103.602 116.272L143.67 173.936Z" fill="url(#paint2_linear_3935_17799)"/>
<path d="M2.90931e-05 115.326L84.7138 115.326L42.6531 173.935L2.90931e-05 115.326Z" fill="url(#paint3_linear_3935_17799)"/>
<path d="M184.31 116.272L143.67 58.1358L103.603 116.272L143.67 173.935L184.31 116.272Z" fill="url(#paint4_linear_3935_17799)"/>
<path d="M143.67 58.1359L103.031 0.00012207L62.9634 58.3732L103.603 116.272L143.67 58.1359Z" fill="url(#paint5_linear_3935_17799)"/>
</g>
<path d="M293.172 163.328C283.015 163.328 271.615 160.619 266.019 154.16L270.579 124.575C274.932 131.867 285.503 134.992 292.343 134.992C300.841 134.992 304.572 131.034 305.193 126.242C306.23 116.449 298.768 104.782 291.513 94.5725C281.15 78.9463 276.383 69.9873 278.455 52.0693C282.394 19.7751 300.841 12.6912 316.386 12.6912C326.75 12.6912 336.491 14.9831 340.43 19.7751L336.699 48.1106C331.931 44.3603 325.091 40.8184 316.593 40.8184C309.753 40.8184 305.401 44.777 304.572 52.0693C303.743 57.6947 307.888 67.9038 315.557 78.5296C323.641 89.7805 335.04 102.073 332.139 124.575C329.237 149.785 315.972 163.328 293.172 163.328Z" fill="white"/>
<path d="M380.951 135.826C391.522 135.826 398.984 129.992 403.336 126.867L412.042 147.702C404.166 156.452 391.107 164.786 374.318 164.786C343.85 164.786 337.839 140.618 341.777 108.532C346.13 72.6958 357.737 52.486 389.864 52.486C414.944 52.486 424.478 78.5296 414.944 116.449H372.246C371.831 126.867 373.282 135.826 380.951 135.826ZM383.024 78.5296C377.427 78.5296 376.184 83.3217 374.111 98.7395H387.791C390.9 78.9463 386.34 78.5296 383.024 78.5296Z" fill="white"/>
<path d="M496.194 160.619H467.176C470.492 137.492 473.601 113.741 475.467 97.9061C477.747 79.1547 474.016 77.9046 470.492 77.9046C465.311 77.9046 463.031 82.4883 461.372 89.7805C458.056 113.324 455.154 136.867 453.082 160.619H423.856C429.038 125.825 433.184 91.0306 436.707 56.4446H461.787L462.616 71.4457C465.932 61.2366 472.565 52.6943 486.245 52.6943C504.07 52.6943 506.558 65.4036 504.278 83.9467C501.169 109.157 498.267 135.617 496.194 160.619Z" fill="white"/>
<path d="M565.267 135.617L570.242 155.202C561.329 160.203 552.831 162.286 544.747 162.286C523.813 162.286 515.108 152.702 519.046 120.825C520.911 105.198 522.569 92.2807 524.227 80.1964C520.289 80.4048 516.144 80.4048 512.206 80.6131L515.522 55.1945C519.253 55.4028 523.191 55.4028 527.337 55.6112C528.166 48.944 528.787 42.2768 529.617 34.9846H558.635C557.598 42.2768 556.355 49.1524 555.318 55.6112C562.78 55.6112 570.449 55.4028 577.911 55.1945L574.802 80.6131C567.133 80.4048 559.256 80.1964 551.38 79.9881C550.136 88.322 548.893 95.6143 548.271 101.865C544.54 131.45 545.162 136.451 549.929 137.909C555.525 139.368 560.293 137.701 565.267 135.617Z" fill="white"/>
<path d="M607.862 48.319C595.218 48.319 591.28 41.4434 592.731 28.7341C594.182 16.0248 599.985 9.14929 612.836 9.14929C625.48 9.14929 629.418 16.2332 627.967 28.7341C626.309 41.2351 620.712 48.319 607.862 48.319ZM608.691 160.619H579.673C584.854 125.825 589.207 91.0306 592.523 56.4446H621.334C616.567 91.0306 612.214 125.825 608.691 160.619Z" fill="white"/>
<path d="M699.579 160.619H670.561C673.877 137.492 676.987 113.741 678.852 97.9061C681.132 79.1547 677.401 77.9046 673.877 77.9046C668.696 77.9046 666.416 82.4883 664.758 89.7805C661.441 113.324 658.539 136.867 656.467 160.619H627.241C632.423 125.825 636.569 91.0306 640.092 56.4446H665.172L666.001 71.4457C669.317 61.2366 675.95 52.6943 689.63 52.6943C707.455 52.6943 709.943 65.4036 707.663 83.9467C704.554 109.157 701.652 135.617 699.579 160.619Z" fill="white"/>
<path d="M755.594 135.826C766.165 135.826 773.627 129.992 777.98 126.867L786.685 147.702C778.809 156.452 765.751 164.786 748.962 164.786C718.493 164.786 712.482 140.618 716.42 108.532C720.773 72.6958 732.38 52.486 764.507 52.486C789.587 52.486 799.121 78.5296 789.587 116.449H746.889C746.474 126.867 747.925 135.826 755.594 135.826ZM757.667 78.5296C752.071 78.5296 750.827 83.3217 748.754 98.7395H762.434C765.543 78.9463 760.983 78.5296 757.667 78.5296Z" fill="white"/>
<path d="M827.31 160.411H798.085C804.51 114.782 810.107 68.9455 814.874 23.1087H844.099C837.259 68.9455 832.285 114.782 827.31 160.411Z" fill="white"/>
<path d="M33.8664 234.776H29.332C29.1576 233.808 28.833 232.955 28.3583 232.219C27.8835 231.482 27.3022 230.857 26.6143 230.344C25.9264 229.83 25.1561 229.443 24.3035 229.181C23.4605 228.919 22.5643 228.789 21.6148 228.789C19.8998 228.789 18.3641 229.22 17.0077 230.082C15.6609 230.944 14.5952 232.209 13.8104 233.875C13.0352 235.542 12.6477 237.577 12.6477 239.979C12.6477 242.402 13.0352 244.446 13.8104 246.112C14.5952 247.779 15.6658 249.039 17.0222 249.891C18.3787 250.744 19.9047 251.17 21.6002 251.17C22.5401 251.17 23.4315 251.044 24.2744 250.792C25.127 250.531 25.8973 250.148 26.5852 249.644C27.2731 249.14 27.8544 248.525 28.3292 247.798C28.8137 247.062 29.1479 246.219 29.332 245.27L33.8664 245.284C33.6242 246.747 33.1543 248.094 32.4567 249.324C31.7688 250.545 30.8822 251.601 29.7971 252.493C28.7216 253.374 27.4911 254.057 26.1056 254.542C24.7201 255.026 23.2086 255.269 21.5712 255.269C18.9939 255.269 16.6977 254.658 14.6824 253.437C12.6671 252.207 11.0781 250.448 9.9154 248.162C8.76242 245.875 8.18593 243.148 8.18593 239.979C8.18593 236.801 8.76727 234.074 9.92994 231.797C11.0926 229.51 12.6816 227.757 14.6969 226.536C16.7122 225.306 19.0036 224.69 21.5712 224.69C23.1505 224.69 24.6232 224.918 25.9893 225.373C27.3652 225.819 28.6005 226.478 29.6953 227.35C30.7902 228.212 31.6961 229.268 32.4131 230.518C33.1301 231.758 33.6145 233.178 33.8664 234.776ZM48.2944 255.312C46.2016 255.312 44.3753 254.833 42.8154 253.873C41.2554 252.914 40.0443 251.572 39.182 249.848C38.3197 248.123 37.8885 246.108 37.8885 243.802C37.8885 241.486 38.3197 239.461 39.182 237.727C40.0443 235.992 41.2554 234.646 42.8154 233.686C44.3753 232.727 46.2016 232.248 48.2944 232.248C50.3873 232.248 52.2136 232.727 53.7735 233.686C55.3334 234.646 56.5446 235.992 57.4069 237.727C58.2692 239.461 58.7003 241.486 58.7003 243.802C58.7003 246.108 58.2692 248.123 57.4069 249.848C56.5446 251.572 55.3334 252.914 53.7735 253.873C52.2136 254.833 50.3873 255.312 48.2944 255.312ZM48.309 251.664C49.6654 251.664 50.7893 251.306 51.6807 250.589C52.5721 249.872 53.231 248.917 53.6573 247.726C54.0933 246.534 54.3113 245.221 54.3113 243.787C54.3113 242.363 54.0933 241.055 53.6573 239.863C53.231 238.662 52.5721 237.698 51.6807 236.971C50.7893 236.244 49.6654 235.881 48.309 235.881C46.9428 235.881 45.8092 236.244 44.9082 236.971C44.0168 237.698 43.3531 238.662 42.9171 239.863C42.4908 241.055 42.2776 242.363 42.2776 243.787C42.2776 245.221 42.4908 246.534 42.9171 247.726C43.3531 248.917 44.0168 249.872 44.9082 250.589C45.8092 251.306 46.9428 251.664 48.309 251.664ZM63.5509 254.862V232.538H67.722V236.172H67.9981C68.4632 234.941 69.2237 233.982 70.2798 233.294C71.3359 232.596 72.6003 232.248 74.073 232.248C75.5651 232.248 76.815 232.596 77.8227 233.294C78.84 233.992 79.5909 234.951 80.0753 236.172H80.3079C80.8408 234.98 81.6885 234.03 82.8512 233.323C84.0139 232.606 85.3994 232.248 87.0078 232.248C89.0327 232.248 90.6847 232.882 91.9636 234.151C93.2523 235.421 93.8966 237.334 93.8966 239.892V254.862H89.5511V240.299C89.5511 238.788 89.1393 237.693 88.3158 237.015C87.4922 236.336 86.5088 235.997 85.3655 235.997C83.9509 235.997 82.8512 236.433 82.0664 237.305C81.2816 238.168 80.8892 239.277 80.8892 240.633V254.862H76.5583V240.023C76.5583 238.812 76.1804 237.838 75.4246 237.102C74.6689 236.365 73.6855 235.997 72.4744 235.997C71.6508 235.997 70.8902 236.215 70.1926 236.651C69.5047 237.078 68.9476 237.673 68.5213 238.439C68.1047 239.204 67.8964 240.091 67.8964 241.098V254.862H63.5509ZM99.7208 263.233V232.538H103.965V236.157H104.328C104.58 235.692 104.943 235.154 105.418 234.544C105.893 233.933 106.552 233.401 107.394 232.945C108.237 232.48 109.352 232.248 110.737 232.248C112.539 232.248 114.148 232.703 115.562 233.614C116.977 234.525 118.086 235.837 118.89 237.552C119.704 239.267 120.111 241.331 120.111 243.744C120.111 246.156 119.709 248.225 118.905 249.949C118.101 251.664 116.996 252.987 115.591 253.917C114.186 254.837 112.583 255.298 110.781 255.298C109.424 255.298 108.315 255.07 107.453 254.615C106.6 254.159 105.931 253.626 105.447 253.016C104.963 252.405 104.59 251.863 104.328 251.388H104.066V263.233H99.7208ZM103.979 243.7C103.979 245.27 104.207 246.645 104.662 247.827C105.118 249.009 105.776 249.935 106.639 250.603C107.501 251.262 108.557 251.592 109.807 251.592C111.105 251.592 112.19 251.248 113.062 250.56C113.934 249.862 114.593 248.917 115.039 247.726C115.494 246.534 115.722 245.192 115.722 243.7C115.722 242.227 115.499 240.905 115.054 239.732C114.618 238.56 113.959 237.635 113.077 236.956C112.205 236.278 111.115 235.939 109.807 235.939C108.547 235.939 107.482 236.264 106.61 236.913C105.747 237.562 105.093 238.468 104.648 239.631C104.202 240.793 103.979 242.15 103.979 243.7ZM124.98 254.862V232.538H129.18V236.084H129.413C129.819 234.883 130.536 233.938 131.563 233.25C132.6 232.553 133.773 232.204 135.081 232.204C135.352 232.204 135.672 232.214 136.04 232.233C136.418 232.252 136.713 232.277 136.926 232.306V236.462C136.752 236.414 136.442 236.361 135.996 236.302C135.55 236.235 135.105 236.201 134.659 236.201C133.632 236.201 132.716 236.419 131.912 236.855C131.118 237.281 130.488 237.877 130.023 238.642C129.558 239.398 129.325 240.26 129.325 241.229V254.862H124.98ZM149.509 255.312C147.309 255.312 145.415 254.842 143.826 253.902C142.247 252.953 141.026 251.621 140.164 249.906C139.311 248.181 138.885 246.161 138.885 243.845C138.885 241.559 139.311 239.543 140.164 237.799C141.026 236.055 142.227 234.694 143.768 233.715C145.318 232.737 147.13 232.248 149.203 232.248C150.463 232.248 151.684 232.456 152.866 232.873C154.048 233.289 155.109 233.943 156.049 234.835C156.988 235.726 157.73 236.884 158.272 238.308C158.815 239.723 159.086 241.442 159.086 243.467V245.008H141.341V241.752H154.828C154.828 240.609 154.595 239.597 154.13 238.715C153.665 237.824 153.011 237.121 152.168 236.608C151.335 236.094 150.356 235.837 149.232 235.837C148.012 235.837 146.946 236.138 146.035 236.738C145.134 237.329 144.436 238.105 143.942 239.064C143.458 240.013 143.216 241.045 143.216 242.159V244.703C143.216 246.195 143.477 247.464 144 248.51C144.533 249.557 145.275 250.356 146.224 250.908C147.174 251.451 148.283 251.722 149.552 251.722C150.376 251.722 151.127 251.606 151.805 251.374C152.483 251.131 153.069 250.773 153.563 250.298C154.058 249.823 154.435 249.237 154.697 248.54L158.81 249.281C158.481 250.492 157.89 251.553 157.037 252.464C156.194 253.365 155.133 254.067 153.854 254.571C152.585 255.065 151.136 255.312 149.509 255.312ZM168.253 241.607V254.862H163.908V225.097H168.195V236.172H168.471C168.994 234.97 169.794 234.016 170.869 233.309C171.945 232.601 173.349 232.248 175.084 232.248C176.615 232.248 177.952 232.563 179.095 233.192C180.248 233.822 181.139 234.762 181.769 236.012C182.409 237.252 182.728 238.802 182.728 240.662V254.862H178.383V241.186C178.383 239.548 177.961 238.279 177.118 237.378C176.275 236.467 175.103 236.012 173.601 236.012C172.574 236.012 171.654 236.23 170.84 236.666C170.036 237.102 169.401 237.741 168.936 238.584C168.481 239.417 168.253 240.425 168.253 241.607ZM198.148 255.312C195.949 255.312 194.055 254.842 192.466 253.902C190.886 252.953 189.666 251.621 188.803 249.906C187.951 248.181 187.524 246.161 187.524 243.845C187.524 241.559 187.951 239.543 188.803 237.799C189.666 236.055 190.867 234.694 192.408 233.715C193.958 232.737 195.77 232.248 197.843 232.248C199.103 232.248 200.323 232.456 201.505 232.873C202.687 233.289 203.748 233.943 204.688 234.835C205.628 235.726 206.369 236.884 206.912 238.308C207.454 239.723 207.726 241.442 207.726 243.467V245.008H189.98V241.752H203.467C203.467 240.609 203.235 239.597 202.77 238.715C202.305 237.824 201.651 237.121 200.808 236.608C199.975 236.094 198.996 235.837 197.872 235.837C196.651 235.837 195.585 236.138 194.675 236.738C193.774 237.329 193.076 238.105 192.582 239.064C192.097 240.013 191.855 241.045 191.855 242.159V244.703C191.855 246.195 192.117 247.464 192.64 248.51C193.173 249.557 193.914 250.356 194.864 250.908C195.813 251.451 196.923 251.722 198.192 251.722C199.015 251.722 199.766 251.606 200.444 251.374C201.123 251.131 201.709 250.773 202.203 250.298C202.697 249.823 203.075 249.237 203.337 248.54L207.45 249.281C207.12 250.492 206.529 251.553 205.677 252.464C204.834 253.365 203.773 254.067 202.494 254.571C201.224 255.065 199.776 255.312 198.148 255.312ZM216.893 241.607V254.862H212.547V232.538H216.718V236.172H216.994C217.508 234.99 218.312 234.04 219.407 233.323C220.511 232.606 221.902 232.248 223.578 232.248C225.099 232.248 226.431 232.567 227.575 233.207C228.718 233.837 229.605 234.776 230.234 236.026C230.864 237.276 231.179 238.822 231.179 240.662V254.862H226.833V241.186C226.833 239.568 226.412 238.303 225.569 237.392C224.726 236.472 223.568 236.012 222.096 236.012C221.088 236.012 220.192 236.23 219.407 236.666C218.632 237.102 218.017 237.741 217.561 238.584C217.115 239.417 216.893 240.425 216.893 241.607ZM253.735 237.988L249.796 238.686C249.632 238.182 249.37 237.702 249.011 237.247C248.663 236.792 248.188 236.419 247.587 236.128C246.986 235.837 246.236 235.692 245.334 235.692C244.104 235.692 243.077 235.968 242.253 236.52C241.43 237.063 241.018 237.765 241.018 238.628C241.018 239.374 241.294 239.975 241.846 240.43C242.399 240.885 243.29 241.258 244.521 241.549L248.067 242.363C250.121 242.838 251.652 243.569 252.659 244.557C253.667 245.546 254.171 246.829 254.171 248.409C254.171 249.746 253.783 250.938 253.008 251.984C252.243 253.021 251.172 253.835 249.796 254.426C248.43 255.017 246.846 255.312 245.044 255.312C242.544 255.312 240.505 254.779 238.925 253.713C237.346 252.638 236.377 251.112 236.019 249.135L240.219 248.496C240.48 249.591 241.018 250.419 241.832 250.981C242.646 251.533 243.707 251.81 245.015 251.81C246.439 251.81 247.577 251.514 248.43 250.923C249.283 250.322 249.709 249.591 249.709 248.728C249.709 248.031 249.447 247.445 248.924 246.97C248.411 246.495 247.621 246.137 246.555 245.894L242.777 245.066C240.693 244.591 239.153 243.836 238.155 242.799C237.167 241.762 236.673 240.449 236.673 238.86C236.673 237.543 237.041 236.39 237.777 235.401C238.513 234.413 239.531 233.643 240.829 233.091C242.127 232.529 243.615 232.248 245.291 232.248C247.703 232.248 249.602 232.771 250.988 233.817C252.373 234.854 253.289 236.244 253.735 237.988ZM258.949 254.862V232.538H263.294V254.862H258.949ZM261.143 229.094C260.387 229.094 259.738 228.842 259.196 228.338C258.663 227.825 258.396 227.214 258.396 226.507C258.396 225.79 258.663 225.18 259.196 224.676C259.738 224.162 260.387 223.905 261.143 223.905C261.899 223.905 262.543 224.162 263.076 224.676C263.619 225.18 263.89 225.79 263.89 226.507C263.89 227.214 263.619 227.825 263.076 228.338C262.543 228.842 261.899 229.094 261.143 229.094ZM288.237 232.538L280.142 254.862H275.491L267.382 232.538H272.047L277.7 249.717H277.933L283.572 232.538H288.237ZM301.183 255.312C298.983 255.312 297.089 254.842 295.5 253.902C293.921 252.953 292.7 251.621 291.838 249.906C290.985 248.181 290.559 246.161 290.559 243.845C290.559 241.559 290.985 239.543 291.838 237.799C292.7 236.055 293.901 234.694 295.442 233.715C296.992 232.737 298.804 232.248 300.877 232.248C302.137 232.248 303.358 232.456 304.54 232.873C305.722 233.289 306.783 233.943 307.723 234.835C308.662 235.726 309.404 236.884 309.946 238.308C310.489 239.723 310.76 241.442 310.76 243.467V245.008H293.015V241.752H306.502C306.502 240.609 306.269 239.597 305.804 238.715C305.339 237.824 304.685 237.121 303.842 236.608C303.009 236.094 302.03 235.837 300.906 235.837C299.686 235.837 298.62 236.138 297.709 236.738C296.808 237.329 296.11 238.105 295.616 239.064C295.132 240.013 294.89 241.045 294.89 242.159V244.703C294.89 246.195 295.151 247.464 295.674 248.51C296.207 249.557 296.949 250.356 297.898 250.908C298.848 251.451 299.957 251.722 301.226 251.722C302.05 251.722 302.801 251.606 303.479 251.374C304.157 251.131 304.743 250.773 305.237 250.298C305.732 249.823 306.109 249.237 306.371 248.54L310.484 249.281C310.155 250.492 309.564 251.553 308.711 252.464C307.868 253.365 306.807 254.067 305.528 254.571C304.259 255.065 302.81 255.312 301.183 255.312ZM351.483 234.776H346.948C346.774 233.808 346.449 232.955 345.975 232.219C345.5 231.482 344.918 230.857 344.231 230.344C343.543 229.83 342.772 229.443 341.92 229.181C341.077 228.919 340.181 228.789 339.231 228.789C337.516 228.789 335.98 229.22 334.624 230.082C333.277 230.944 332.211 232.209 331.427 233.875C330.652 235.542 330.264 237.577 330.264 239.979C330.264 242.402 330.652 244.446 331.427 246.112C332.211 247.779 333.282 249.039 334.639 249.891C335.995 250.744 337.521 251.17 339.217 251.17C340.156 251.17 341.048 251.044 341.891 250.792C342.743 250.531 343.514 250.148 344.201 249.644C344.889 249.14 345.471 248.525 345.945 247.798C346.43 247.062 346.764 246.219 346.948 245.27L351.483 245.284C351.24 246.747 350.771 248.094 350.073 249.324C349.385 250.545 348.499 251.601 347.413 252.493C346.338 253.374 345.107 254.057 343.722 254.542C342.336 255.026 340.825 255.269 339.187 255.269C336.61 255.269 334.314 254.658 332.299 253.437C330.283 252.207 328.694 250.448 327.532 248.162C326.379 245.875 325.802 243.148 325.802 239.979C325.802 236.801 326.384 234.074 327.546 231.797C328.709 229.51 330.298 227.757 332.313 226.536C334.328 225.306 336.62 224.69 339.187 224.69C340.767 224.69 342.239 224.918 343.606 225.373C344.981 225.819 346.217 226.478 347.312 227.35C348.406 228.212 349.312 229.268 350.029 230.518C350.746 231.758 351.231 233.178 351.483 234.776ZM363.004 255.356C361.589 255.356 360.311 255.094 359.167 254.571C358.024 254.038 357.118 253.268 356.449 252.26C355.791 251.252 355.461 250.017 355.461 248.554C355.461 247.295 355.703 246.258 356.188 245.444C356.672 244.63 357.326 243.986 358.15 243.511C358.973 243.036 359.894 242.678 360.911 242.436C361.929 242.193 362.965 242.009 364.021 241.883C365.358 241.728 366.444 241.602 367.277 241.505C368.11 241.399 368.716 241.229 369.094 240.997C369.471 240.764 369.66 240.386 369.66 239.863V239.761C369.66 238.492 369.302 237.509 368.585 236.811C367.878 236.114 366.821 235.765 365.417 235.765C363.954 235.765 362.801 236.089 361.958 236.738C361.124 237.378 360.548 238.09 360.228 238.875L356.144 237.945C356.629 236.588 357.336 235.493 358.266 234.66C359.206 233.817 360.286 233.207 361.507 232.829C362.728 232.441 364.012 232.248 365.358 232.248C366.25 232.248 367.194 232.354 368.192 232.567C369.2 232.771 370.14 233.149 371.012 233.701C371.894 234.253 372.615 235.043 373.177 236.07C373.739 237.087 374.02 238.41 374.02 240.038V254.862H369.777V251.81H369.602C369.321 252.372 368.9 252.924 368.338 253.466C367.776 254.009 367.054 254.459 366.172 254.818C365.291 255.176 364.235 255.356 363.004 255.356ZM363.949 251.868C365.15 251.868 366.177 251.63 367.03 251.156C367.892 250.681 368.546 250.061 368.992 249.295C369.447 248.52 369.675 247.692 369.675 246.81V243.932C369.52 244.087 369.219 244.233 368.774 244.368C368.338 244.494 367.839 244.606 367.277 244.703C366.715 244.79 366.167 244.872 365.635 244.95C365.102 245.018 364.656 245.076 364.298 245.124C363.455 245.231 362.684 245.41 361.987 245.662C361.299 245.914 360.747 246.277 360.33 246.752C359.923 247.217 359.719 247.837 359.719 248.612C359.719 249.688 360.117 250.502 360.911 251.054C361.706 251.596 362.718 251.868 363.949 251.868ZM396.536 237.988L392.598 238.686C392.433 238.182 392.171 237.702 391.813 237.247C391.464 236.792 390.989 236.419 390.389 236.128C389.788 235.837 389.037 235.692 388.136 235.692C386.905 235.692 385.878 235.968 385.055 236.52C384.231 237.063 383.819 237.765 383.819 238.628C383.819 239.374 384.096 239.975 384.648 240.43C385.2 240.885 386.092 241.258 387.322 241.549L390.868 242.363C392.922 242.838 394.453 243.569 395.461 244.557C396.468 245.546 396.972 246.829 396.972 248.409C396.972 249.746 396.585 250.938 395.81 251.984C395.044 253.021 393.973 253.835 392.598 254.426C391.232 255.017 389.647 255.312 387.845 255.312C385.345 255.312 383.306 254.779 381.727 253.713C380.147 252.638 379.178 251.112 378.82 249.135L383.02 248.496C383.282 249.591 383.819 250.419 384.633 250.981C385.447 251.533 386.508 251.81 387.816 251.81C389.24 251.81 390.379 251.514 391.232 250.923C392.084 250.322 392.51 249.591 392.51 248.728C392.51 248.031 392.249 247.445 391.726 246.97C391.212 246.495 390.422 246.137 389.357 245.894L385.578 245.066C383.495 244.591 381.954 243.836 380.956 242.799C379.968 241.762 379.474 240.449 379.474 238.86C379.474 237.543 379.842 236.39 380.579 235.401C381.315 234.413 382.332 233.643 383.631 233.091C384.929 232.529 386.416 232.248 388.092 232.248C390.505 232.248 392.404 232.771 393.789 233.817C395.175 234.854 396.091 236.244 396.536 237.988ZM411.371 255.312C409.172 255.312 407.278 254.842 405.689 253.902C404.109 252.953 402.889 251.621 402.026 249.906C401.174 248.181 400.747 246.161 400.747 243.845C400.747 241.559 401.174 239.543 402.026 237.799C402.889 236.055 404.09 234.694 405.63 233.715C407.181 232.737 408.993 232.248 411.066 232.248C412.326 232.248 413.546 232.456 414.728 232.873C415.91 233.289 416.971 233.943 417.911 234.835C418.851 235.726 419.592 236.884 420.135 238.308C420.677 239.723 420.949 241.442 420.949 243.467V245.008H403.203V241.752H416.69C416.69 240.609 416.458 239.597 415.993 238.715C415.528 237.824 414.874 237.121 414.031 236.608C413.198 236.094 412.219 235.837 411.095 235.837C409.874 235.837 408.808 236.138 407.898 236.738C406.997 237.329 406.299 238.105 405.805 239.064C405.32 240.013 405.078 241.045 405.078 242.159V244.703C405.078 246.195 405.34 247.464 405.863 248.51C406.396 249.557 407.137 250.356 408.087 250.908C409.036 251.451 410.146 251.722 411.415 251.722C412.238 251.722 412.989 251.606 413.667 251.374C414.346 251.131 414.932 250.773 415.426 250.298C415.92 249.823 416.298 249.237 416.56 248.54L420.673 249.281C420.343 250.492 419.752 251.553 418.899 252.464C418.057 253.365 416.996 254.067 415.717 254.571C414.447 255.065 412.999 255.312 411.371 255.312ZM436.95 225.097H442.4L451.876 248.234H452.225L461.7 225.097H467.15V254.862H462.877V233.323H462.601L453.823 254.818H450.277L441.499 233.309H441.223V254.862H436.95V225.097ZM479.827 255.356C478.412 255.356 477.134 255.094 475.99 254.571C474.847 254.038 473.941 253.268 473.273 252.26C472.614 251.252 472.284 250.017 472.284 248.554C472.284 247.295 472.526 246.258 473.011 245.444C473.495 244.63 474.149 243.986 474.973 243.511C475.796 243.036 476.717 242.678 477.734 242.436C478.752 242.193 479.788 242.009 480.844 241.883C482.181 241.728 483.267 241.602 484.1 241.505C484.933 241.399 485.539 241.229 485.917 240.997C486.294 240.764 486.483 240.386 486.483 239.863V239.761C486.483 238.492 486.125 237.509 485.408 236.811C484.701 236.114 483.644 235.765 482.24 235.765C480.777 235.765 479.624 236.089 478.781 236.738C477.947 237.378 477.371 238.09 477.051 238.875L472.967 237.945C473.452 236.588 474.159 235.493 475.089 234.66C476.029 233.817 477.109 233.207 478.33 232.829C479.551 232.441 480.835 232.248 482.181 232.248C483.073 232.248 484.018 232.354 485.015 232.567C486.023 232.771 486.963 233.149 487.835 233.701C488.717 234.253 489.438 235.043 490 236.07C490.562 237.087 490.843 238.41 490.843 240.038V254.862H486.6V251.81H486.425C486.144 252.372 485.723 252.924 485.161 253.466C484.599 254.009 483.877 254.459 482.995 254.818C482.114 255.176 481.058 255.356 479.827 255.356ZM480.772 251.868C481.973 251.868 483 251.63 483.853 251.156C484.715 250.681 485.369 250.061 485.815 249.295C486.27 248.52 486.498 247.692 486.498 246.81V243.932C486.343 244.087 486.043 244.233 485.597 244.368C485.161 244.494 484.662 244.606 484.1 244.703C483.538 244.79 482.99 244.872 482.458 244.95C481.925 245.018 481.479 245.076 481.121 245.124C480.278 245.231 479.507 245.41 478.81 245.662C478.122 245.914 477.57 246.277 477.153 246.752C476.746 247.217 476.543 247.837 476.543 248.612C476.543 249.688 476.94 250.502 477.734 251.054C478.529 251.596 479.541 251.868 480.772 251.868ZM500.977 241.607V254.862H496.631V232.538H500.802V236.172H501.078C501.592 234.99 502.396 234.04 503.491 233.323C504.596 232.606 505.986 232.248 507.662 232.248C509.183 232.248 510.515 232.567 511.659 233.207C512.802 233.837 513.689 234.776 514.318 236.026C514.948 237.276 515.263 238.822 515.263 240.662V254.862H510.918V241.186C510.918 239.568 510.496 238.303 509.653 237.392C508.81 236.472 507.652 236.012 506.18 236.012C505.172 236.012 504.276 236.23 503.491 236.666C502.716 237.102 502.101 237.741 501.645 238.584C501.2 239.417 500.977 240.425 500.977 241.607ZM530.45 263.698C528.677 263.698 527.151 263.465 525.872 263C524.603 262.535 523.566 261.92 522.762 261.155C521.958 260.389 521.357 259.551 520.96 258.64L524.695 257.1C524.957 257.526 525.306 257.977 525.742 258.451C526.187 258.936 526.788 259.348 527.544 259.687C528.309 260.026 529.293 260.195 530.494 260.195C532.141 260.195 533.502 259.793 534.578 258.989C535.653 258.195 536.191 256.925 536.191 255.181V250.792H535.915C535.653 251.267 535.276 251.795 534.781 252.376C534.297 252.958 533.628 253.462 532.776 253.888C531.923 254.314 530.814 254.527 529.448 254.527C527.684 254.527 526.095 254.116 524.681 253.292C523.276 252.459 522.162 251.233 521.338 249.615C520.524 247.987 520.117 245.987 520.117 243.613C520.117 241.239 520.519 239.204 521.323 237.509C522.137 235.813 523.252 234.515 524.666 233.614C526.081 232.703 527.684 232.248 529.477 232.248C530.862 232.248 531.981 232.48 532.834 232.945C533.687 233.401 534.35 233.933 534.825 234.544C535.309 235.154 535.682 235.692 535.944 236.157H536.264V232.538H540.522V255.356C540.522 257.274 540.076 258.849 539.185 260.079C538.294 261.31 537.087 262.22 535.566 262.811C534.055 263.402 532.349 263.698 530.45 263.698ZM530.407 250.923C531.657 250.923 532.713 250.632 533.575 250.051C534.447 249.46 535.106 248.617 535.552 247.522C536.007 246.418 536.235 245.095 536.235 243.555C536.235 242.053 536.012 240.73 535.566 239.587C535.121 238.444 534.467 237.552 533.604 236.913C532.742 236.264 531.676 235.939 530.407 235.939C529.099 235.939 528.009 236.278 527.137 236.956C526.265 237.625 525.606 238.536 525.16 239.689C524.724 240.842 524.506 242.13 524.506 243.555C524.506 245.018 524.729 246.301 525.175 247.406C525.621 248.51 526.279 249.373 527.151 249.993C528.033 250.613 529.118 250.923 530.407 250.923ZM555.971 255.312C553.772 255.312 551.878 254.842 550.289 253.902C548.709 252.953 547.488 251.621 546.626 249.906C545.773 248.181 545.347 246.161 545.347 243.845C545.347 241.559 545.773 239.543 546.626 237.799C547.488 236.055 548.69 234.694 550.23 233.715C551.781 232.737 553.592 232.248 555.666 232.248C556.925 232.248 558.146 232.456 559.328 232.873C560.51 233.289 561.571 233.943 562.511 234.835C563.451 235.726 564.192 236.884 564.735 238.308C565.277 239.723 565.549 241.442 565.549 243.467V245.008H547.803V241.752H561.29C561.29 240.609 561.058 239.597 560.593 238.715C560.128 237.824 559.474 237.121 558.631 236.608C557.797 236.094 556.819 235.837 555.695 235.837C554.474 235.837 553.408 236.138 552.498 236.738C551.597 237.329 550.899 238.105 550.405 239.064C549.92 240.013 549.678 241.045 549.678 242.159V244.703C549.678 246.195 549.94 247.464 550.463 248.51C550.996 249.557 551.737 250.356 552.687 250.908C553.636 251.451 554.745 251.722 556.015 251.722C556.838 251.722 557.589 251.606 558.267 251.374C558.946 251.131 559.532 250.773 560.026 250.298C560.52 249.823 560.898 249.237 561.16 248.54L565.272 249.281C564.943 250.492 564.352 251.553 563.499 252.464C562.656 253.365 561.596 254.067 560.317 254.571C559.047 255.065 557.599 255.312 555.971 255.312ZM570.37 254.862V232.538H574.541V236.172H574.817C575.282 234.941 576.043 233.982 577.099 233.294C578.155 232.596 579.42 232.248 580.892 232.248C582.384 232.248 583.634 232.596 584.642 233.294C585.659 233.992 586.41 234.951 586.895 236.172H587.127C587.66 234.98 588.508 234.03 589.67 233.323C590.833 232.606 592.219 232.248 593.827 232.248C595.852 232.248 597.504 232.882 598.783 234.151C600.071 235.421 600.716 237.334 600.716 239.892V254.862H596.37V240.299C596.37 238.788 595.959 237.693 595.135 237.015C594.311 236.336 593.328 235.997 592.185 235.997C590.77 235.997 589.67 236.433 588.886 237.305C588.101 238.168 587.708 239.277 587.708 240.633V254.862H583.377V240.023C583.377 238.812 583 237.838 582.244 237.102C581.488 236.365 580.505 235.997 579.294 235.997C578.47 235.997 577.709 236.215 577.012 236.651C576.324 237.078 575.767 237.673 575.34 238.439C574.924 239.204 574.716 240.091 574.716 241.098V254.862H570.37ZM616.161 255.312C613.962 255.312 612.068 254.842 610.479 253.902C608.899 252.953 607.678 251.621 606.816 249.906C605.963 248.181 605.537 246.161 605.537 243.845C605.537 241.559 605.963 239.543 606.816 237.799C607.678 236.055 608.88 234.694 610.42 233.715C611.971 232.737 613.782 232.248 615.856 232.248C617.115 232.248 618.336 232.456 619.518 232.873C620.7 233.289 621.761 233.943 622.701 234.835C623.641 235.726 624.382 236.884 624.925 238.308C625.467 239.723 625.739 241.442 625.739 243.467V245.008H607.993V241.752H621.48C621.48 240.609 621.248 239.597 620.783 238.715C620.318 237.824 619.664 237.121 618.821 236.608C617.987 236.094 617.009 235.837 615.885 235.837C614.664 235.837 613.598 236.138 612.688 236.738C611.787 237.329 611.089 238.105 610.595 239.064C610.11 240.013 609.868 241.045 609.868 242.159V244.703C609.868 246.195 610.13 247.464 610.653 248.51C611.186 249.557 611.927 250.356 612.877 250.908C613.826 251.451 614.935 251.722 616.205 251.722C617.028 251.722 617.779 251.606 618.457 251.374C619.136 251.131 619.722 250.773 620.216 250.298C620.71 249.823 621.088 249.237 621.35 248.54L625.462 249.281C625.133 250.492 624.542 251.553 623.689 252.464C622.846 253.365 621.786 254.067 620.507 254.571C619.237 255.065 617.789 255.312 616.161 255.312ZM634.906 241.607V254.862H630.56V232.538H634.731V236.172H635.007C635.521 234.99 636.325 234.04 637.42 233.323C638.524 232.606 639.915 232.248 641.591 232.248C643.112 232.248 644.444 232.567 645.588 233.207C646.731 233.837 647.617 234.776 648.247 236.026C648.877 237.276 649.192 238.822 649.192 240.662V254.862H644.846V241.186C644.846 239.568 644.425 238.303 643.582 237.392C642.739 236.472 641.581 236.012 640.109 236.012C639.101 236.012 638.205 236.23 637.42 236.666C636.645 237.102 636.029 237.741 635.574 238.584C635.128 239.417 634.906 240.425 634.906 241.607ZM665.44 232.538V236.026H653.247V232.538H665.44ZM656.517 227.19H660.862V248.307C660.862 249.15 660.988 249.785 661.24 250.211C661.492 250.628 661.817 250.913 662.214 251.068C662.621 251.214 663.062 251.286 663.536 251.286C663.885 251.286 664.19 251.262 664.452 251.214C664.714 251.165 664.917 251.126 665.062 251.097L665.847 254.687C665.595 254.784 665.237 254.881 664.772 254.978C664.307 255.084 663.725 255.143 663.028 255.152C661.884 255.172 660.819 254.968 659.83 254.542C658.842 254.116 658.043 253.457 657.432 252.565C656.822 251.674 656.517 250.555 656.517 249.208V227.19ZM697.661 232.916C697.506 231.54 696.866 230.475 695.742 229.719C694.618 228.953 693.204 228.571 691.499 228.571C690.278 228.571 689.222 228.764 688.33 229.152C687.439 229.53 686.746 230.053 686.252 230.722C685.768 231.38 685.525 232.131 685.525 232.974C685.525 233.682 685.69 234.292 686.019 234.805C686.359 235.319 686.799 235.75 687.342 236.099C687.894 236.438 688.485 236.724 689.115 236.956C689.745 237.179 690.35 237.363 690.932 237.509L693.838 238.264C694.788 238.497 695.762 238.812 696.76 239.209C697.758 239.606 698.683 240.13 699.536 240.779C700.388 241.428 701.076 242.232 701.599 243.191C702.132 244.15 702.399 245.299 702.399 246.636C702.399 248.322 701.963 249.818 701.091 251.126C700.228 252.434 698.974 253.466 697.326 254.222C695.689 254.978 693.708 255.356 691.382 255.356C689.154 255.356 687.226 255.002 685.598 254.295C683.97 253.587 682.696 252.585 681.776 251.286C680.855 249.978 680.347 248.428 680.25 246.636H684.755C684.842 247.711 685.191 248.607 685.801 249.324C686.422 250.032 687.211 250.56 688.17 250.908C689.139 251.248 690.2 251.417 691.353 251.417C692.622 251.417 693.751 251.219 694.74 250.821C695.737 250.414 696.522 249.852 697.094 249.135C697.666 248.409 697.951 247.561 697.951 246.592C697.951 245.71 697.699 244.989 697.196 244.427C696.702 243.865 696.028 243.4 695.176 243.031C694.333 242.663 693.378 242.339 692.312 242.058L688.795 241.098C686.412 240.449 684.523 239.495 683.127 238.235C681.742 236.976 681.049 235.309 681.049 233.236C681.049 231.521 681.514 230.024 682.444 228.745C683.374 227.466 684.634 226.473 686.223 225.766C687.812 225.049 689.604 224.69 691.6 224.69C693.616 224.69 695.394 225.044 696.934 225.751C698.484 226.458 699.705 227.432 700.596 228.672C701.488 229.903 701.953 231.317 701.992 232.916H697.661ZM716.819 255.312C714.727 255.312 712.9 254.833 711.34 253.873C709.78 252.914 708.569 251.572 707.707 249.848C706.845 248.123 706.413 246.108 706.413 243.802C706.413 241.486 706.845 239.461 707.707 237.727C708.569 235.992 709.78 234.646 711.34 233.686C712.9 232.727 714.727 232.248 716.819 232.248C718.912 232.248 720.739 232.727 722.298 233.686C723.858 234.646 725.069 235.992 725.932 237.727C726.794 239.461 727.225 241.486 727.225 243.802C727.225 246.108 726.794 248.123 725.932 249.848C725.069 251.572 723.858 252.914 722.298 253.873C720.739 254.833 718.912 255.312 716.819 255.312ZM716.834 251.664C718.19 251.664 719.314 251.306 720.206 250.589C721.097 249.872 721.756 248.917 722.182 247.726C722.618 246.534 722.836 245.221 722.836 243.787C722.836 242.363 722.618 241.055 722.182 239.863C721.756 238.662 721.097 237.698 720.206 236.971C719.314 236.244 718.19 235.881 716.834 235.881C715.468 235.881 714.334 236.244 713.433 236.971C712.542 237.698 711.878 238.662 711.442 239.863C711.016 241.055 710.803 242.363 710.803 243.787C710.803 245.221 711.016 246.534 711.442 247.726C711.878 248.917 712.542 249.872 713.433 250.589C714.334 251.306 715.468 251.664 716.834 251.664ZM736.421 225.097V254.862H732.076V225.097H736.421ZM756.408 245.604V232.538H760.768V254.862H756.496V250.996H756.263C755.749 252.187 754.926 253.181 753.792 253.975C752.668 254.76 751.268 255.152 749.592 255.152C748.158 255.152 746.889 254.837 745.784 254.208C744.69 253.568 743.827 252.623 743.197 251.374C742.577 250.124 742.267 248.578 742.267 246.737V232.538H746.613V246.214C746.613 247.735 747.034 248.946 747.877 249.848C748.72 250.749 749.815 251.199 751.162 251.199C751.976 251.199 752.785 250.996 753.589 250.589C754.403 250.182 755.076 249.567 755.609 248.743C756.152 247.919 756.418 246.873 756.408 245.604ZM777.028 232.538V236.026H764.834V232.538H777.028ZM768.104 227.19H772.45V248.307C772.45 249.15 772.576 249.785 772.827 250.211C773.079 250.628 773.404 250.913 773.801 251.068C774.208 251.214 774.649 251.286 775.124 251.286C775.472 251.286 775.778 251.262 776.039 251.214C776.301 251.165 776.504 251.126 776.65 251.097L777.434 254.687C777.183 254.784 776.824 254.881 776.359 254.978C775.894 255.084 775.313 255.143 774.615 255.152C773.472 255.172 772.406 254.968 771.418 254.542C770.429 254.116 769.63 253.457 769.02 252.565C768.409 251.674 768.104 250.555 768.104 249.208V227.19ZM781.834 254.862V232.538H786.18V254.862H781.834ZM784.029 229.094C783.273 229.094 782.624 228.842 782.082 228.338C781.549 227.825 781.282 227.214 781.282 226.507C781.282 225.79 781.549 225.18 782.082 224.676C782.624 224.162 783.273 223.905 784.029 223.905C784.785 223.905 785.429 224.162 785.962 224.676C786.505 225.18 786.776 225.79 786.776 226.507C786.776 227.214 786.505 227.825 785.962 228.338C785.429 228.842 784.785 229.094 784.029 229.094ZM801.429 255.312C799.336 255.312 797.51 254.833 795.95 253.873C794.39 252.914 793.179 251.572 792.317 249.848C791.454 248.123 791.023 246.108 791.023 243.802C791.023 241.486 791.454 239.461 792.317 237.727C793.179 235.992 794.39 234.646 795.95 233.686C797.51 232.727 799.336 232.248 801.429 232.248C803.522 232.248 805.348 232.727 806.908 233.686C808.468 234.646 809.679 235.992 810.542 237.727C811.404 239.461 811.835 241.486 811.835 243.802C811.835 246.108 811.404 248.123 810.542 249.848C809.679 251.572 808.468 252.914 806.908 253.873C805.348 254.833 803.522 255.312 801.429 255.312ZM801.444 251.664C802.8 251.664 803.924 251.306 804.815 250.589C805.707 249.872 806.366 248.917 806.792 247.726C807.228 246.534 807.446 245.221 807.446 243.787C807.446 242.363 807.228 241.055 806.792 239.863C806.366 238.662 805.707 237.698 804.815 236.971C803.924 236.244 802.8 235.881 801.444 235.881C800.078 235.881 798.944 236.244 798.043 236.971C797.151 237.698 796.488 238.662 796.052 239.863C795.625 241.055 795.412 242.363 795.412 243.787C795.412 245.221 795.625 246.534 796.052 247.726C796.488 248.917 797.151 249.872 798.043 250.589C798.944 251.306 800.078 251.664 801.444 251.664ZM821.031 241.607V254.862H816.686V232.538H820.857V236.172H821.133C821.646 234.99 822.45 234.04 823.545 233.323C824.65 232.606 826.04 232.248 827.716 232.248C829.238 232.248 830.57 232.567 831.713 233.207C832.856 233.837 833.743 234.776 834.373 236.026C835.002 237.276 835.317 238.822 835.317 240.662V254.862H830.972V241.186C830.972 239.568 830.55 238.303 829.707 237.392C828.865 236.472 827.707 236.012 826.234 236.012C825.226 236.012 824.33 236.23 823.545 236.666C822.77 237.102 822.155 237.741 821.7 238.584C821.254 239.417 821.031 240.425 821.031 241.607Z" fill="white"/>
<defs>
<filter id="filter0_ii_3935_17799" x="3.05176e-05" y="-3.96144" width="245.556" height="181.858" filterUnits="userSpaceOnUse" color-interpolation-filters="sRGB">
<feFlood flood-opacity="0" result="BackgroundImageFix"/>
<feBlend mode="normal" in="SourceGraphic" in2="BackgroundImageFix" result="shape"/>
<feColorMatrix in="SourceAlpha" type="matrix" values="0 0 0 0 0 0 0 0 0 0 0 0 0 0 0 0 0 0 127 0" result="hardAlpha"/>
<feOffset dy="3.96144"/>
<feGaussianBlur stdDeviation="6.6024"/>
<feComposite in2="hardAlpha" operator="arithmetic" k2="-1" k3="1"/>
<feColorMatrix type="matrix" values="0 0 0 0 0 0 0 0 0 0 0 0 0 0 0 0 0 0 0.3 0"/>
<feBlend mode="normal" in2="shape" result="effect1_innerShadow_3935_17799"/>
<feColorMatrix in="SourceAlpha" type="matrix" values="0 0 0 0 0 0 0 0 0 0 0 0 0 0 0 0 0 0 127 0" result="hardAlpha"/>
<feOffset dy="-3.96144"/>
<feGaussianBlur stdDeviation="6.6024"/>
<feComposite in2="hardAlpha" operator="arithmetic" k2="-1" k3="1"/>
<feColorMatrix type="matrix" values="0 0 0 0 1 0 0 0 0 1 0 0 0 0 1 0 0 0 0.3 0"/>
<feBlend mode="normal" in2="effect1_innerShadow_3935_17799" result="effect2_innerShadow_3935_17799"/>
</filter>
<linearGradient id="paint0_linear_3935_17799" x1="225.523" y1="29.3047" x2="170.113" y2="67.8267" gradientUnits="userSpaceOnUse">
<stop stop-color="#7D2DEC"/>
<stop offset="1" stop-color="#4A01F5"/>
</linearGradient>
<linearGradient id="paint1_linear_3935_17799" x1="123.065" y1="29.3042" x2="179.068" y2="-9.27289" gradientUnits="userSpaceOnUse">
<stop stop-color="#3276FF"/>
<stop offset="1" stop-color="#48F1FA"/>
</linearGradient>
<linearGradient id="paint2_linear_3935_17799" x1="122.491" y1="142.268" x2="68.9493" y2="183.252" gradientUnits="userSpaceOnUse">
<stop stop-color="#3276FF"/>
<stop offset="1" stop-color="#48F1FA"/>
</linearGradient>
<linearGradient id="paint3_linear_3935_17799" x1="2.97243e-05" y1="115.326" x2="57.19" y2="154.011" gradientUnits="userSpaceOnUse">
<stop stop-color="#4800F6"/>
<stop offset="1" stop-color="#7E2DEC"/>
</linearGradient>
<linearGradient id="paint4_linear_3935_17799" x1="143.957" y1="58.1358" x2="143.957" y2="173.935" gradientUnits="userSpaceOnUse">
<stop stop-color="#F94140"/>
<stop offset="1" stop-color="#FEBF4B"/>
</linearGradient>
<linearGradient id="paint5_linear_3935_17799" x1="103.317" y1="0.00012207" x2="103.317" y2="116.272" gradientUnits="userSpaceOnUse">
<stop stop-color="#FEB631"/>
<stop offset="1" stop-color="#F94040"/>
</linearGradient>
</defs>
</svg>
